<svg width="462" height="249" viewBox="0 0 462 249" xmlns="http://www.w3.org/2000/svg"><title>Group 6</title><g fill="none" fill-rule="evenodd"><path d="M449.107 98.672c0 12.053-9.768 21.823-21.818 21.823s-21.818-9.77-21.818-21.823 9.769-21.823 21.818-21.823c12.05 0 21.818 9.77 21.818 21.823M44.293 204.276c0 8.734-7.08 15.815-15.811 15.815-8.732 0-15.81-7.08-15.81-15.815 0-8.734 7.078-15.815 15.81-15.815s15.81 7.08 15.81 15.815" fill="#1F70A8"/><path d="M117.701 15.058c0 6.526-5.29 11.817-11.814 11.817s-11.814-5.29-11.814-11.817c0-6.526 5.29-11.817 11.814-11.817 6.525 0 11.814 5.29 11.814 11.817" fill="#2C92D7"/><path d="M373.064 247.94c16.385-25.16 25.913-55.198 25.913-87.465C398.977 71.847 327.15 0 238.545 0 149.941 0 78.113 71.847 78.113 160.475c0 32.267 9.529 62.304 25.913 87.465h269.038z" fill="#9FDAFC"/><path d="M339.43 121.203c-2.527-26.152-24.556-46.598-51.365-46.598a51.438 51.438 0 0 0-18.487 3.425c-9.276-19.822-29.393-33.556-52.72-33.556-32.133 0-58.181 26.056-58.181 58.198 0 6.021.914 11.83 2.611 17.293a41.22 41.22 0 0 0-2.611-.092c-22.636 0-40.986 18.356-40.986 40.997 0 22.642 18.35 40.997 40.986 40.997H329.05c22.635 0 40.985-18.355 40.985-40.997 0-19.054-12.996-35.069-30.605-39.667" fill="#F4F4F4"/><path d="M339.43 121.203c-2.527-26.152-24.556-46.598-51.365-46.598a51.438 51.438 0 0 0-18.487 3.425c-9.276-19.822-29.393-33.556-52.72-33.556-32.133 0-58.181 26.056-58.181 58.198 0 6.021.914 11.83 2.611 17.293a41.22 41.22 0 0 0-2.611-.092c-22.636 0-40.986 18.356-40.986 40.997 0 22.642 18.35 40.997 40.986 40.997H329.05c22.635 0 40.985-18.355 40.985-40.997 0-19.054-12.996-35.069-30.605-39.667z" stroke="#1F70A8" stroke-width="2"/><path d="M263.228 83.249c2.11-1.225 4.723-3.678 7.009-4.599-9.213-19.983-30.676-34.244-54.12-34.244-23.745 0-44.165 14.23-53.21 34.628 10.348-16.113 28.423-26.788 48.99-26.788 21.594 0 41.292 13.53 51.331 31.003" fill="#FCFCFC"/><path d="M287.916 74.239a51.359 51.359 0 0 0-18.92 3.594c.138.289.283.576.418.867-2.252.908-4.101 3.333-6.186 4.549 5.401-1.922 10.788-3.885 16.85-3.885 24.568 0 45.015 20.74 50.225 43.738 3.055.1 6.124-2.09 8.975-1.356-2.548-26.132-24.568-47.507-51.362-47.507" fill="#FCFCFC"/><path d="M339.04 121.037c.027.237.063.472.087.71-2.6-.67-6.038 1.314-8.823 1.355 16.54 5.274 29.181 19.406 29.181 37.7 0 20.852-15.567 38.056-35.71 40.647 1.729.223 3.487.35 5.276.35 22.636 0 40.986-18.355 40.986-40.997 0-19.194-13.19-35.303-30.997-39.765" fill="#FCFCFC"/><path d="M162.766 197.459c-18.202-2.468-29.992-18.645-29.992-37.85 0-18.327 12.024-33.84 28.609-39.09a41.486 41.486 0 0 0-2.696-.098c-22.636 0-40.986 18.355-40.986 40.997s18.35 40.997 40.986 40.997c1.724 0 3.423-.112 5.09-.32v.32h102.767l57.232-.966s-121.11 1.418-161.01-3.99" fill="#E5E3E3"/><path d="M339.441 121.135c-2.528-26.152-24.556-46.599-51.365-46.599a51.438 51.438 0 0 0-18.488 3.426c-9.275-19.823-29.392-33.556-52.72-33.556-32.132 0-58.18 26.056-58.18 58.198 0 6.021.914 11.83 2.611 17.293a41.22 41.22 0 0 0-2.612-.092c-22.636 0-40.986 18.355-40.986 40.997s18.35 40.997 40.986 40.997h170.375c22.635 0 40.985-18.355 40.985-40.997 0-19.054-12.997-35.07-30.606-39.667z" stroke="#1F70A8" stroke-width="2"/><path fill="#90DD93" d="M391.35 172.011l-72.474 43.522-21.892-36.475 72.473-43.521z"/><path stroke="#1F70A8" stroke-width="2" d="M391.35 172.011l-72.474 43.522-21.892-36.475 72.473-43.521z"/><path d="M361.128 147.742l-49.458 29.7a6.607 6.607 0 0 1-2.263 9.065l8.737 14.556a6.603 6.603 0 0 1 9.061 2.264l49.458-29.7a6.607 6.607 0 0 1 2.263-9.065l-8.737-14.556a6.603 6.603 0 0 1-9.061-2.264" fill="#9BEBA1"/><path d="M361.128 147.742l-49.458 29.7a6.607 6.607 0 0 1-2.263 9.065l8.737 14.556a6.603 6.603 0 0 1 9.061 2.264l49.458-29.7a6.607 6.607 0 0 1 2.263-9.065l-8.737-14.556a6.603 6.603 0 0 1-9.061-2.264z" stroke="#1F70A8" stroke-width="2"/><path d="M358.347 167.02c4.701 7.833 2.165 17.996-5.668 22.699-7.83 4.702-17.991 2.165-22.693-5.669-4.701-7.834-2.163-17.996 5.668-22.7 7.831-4.702 17.991-2.164 22.693 5.67" fill="#ADF2B0"/><path d="M358.347 167.02c4.701 7.833 2.165 17.996-5.668 22.699-7.83 4.702-17.991 2.165-22.693-5.669-4.701-7.834-2.163-17.996 5.668-22.7 7.831-4.702 17.991-2.164 22.693 5.67z" stroke="#1F70A8" stroke-width="2"/><path d="M349.516 186.388l-1.526-2.543c-1.476.85-3.258 1.305-4.518 1.204l-.409-2.05c1.27.06 2.867-.249 4.278-1.095 1.785-1.073 2.376-2.832 1.514-4.267-.832-1.386-2.328-1.652-4.645-1.289-3.171.534-5.454.329-6.77-1.863-1.254-2.09-.722-4.568 1.368-6.339l-1.527-2.542 1.563-.939 1.466 2.443c1.542-.857 2.814-1.074 3.801-1.083l.369 2.04c-.711.015-2.074.08-3.686 1.048-1.94 1.166-1.974 2.763-1.37 3.77.787 1.309 2.11 1.405 4.846.995 3.229-.498 5.323.025 6.669 2.267 1.195 1.99.929 4.684-1.408 6.67l1.572 2.62-1.587.953z" fill="#1F70A8"/><path fill="#90DD93" d="M375.818 142.317l-52.591 66.197-33.298-26.469 52.591-66.197z"/><path stroke="#1F70A8" stroke-width="2" d="M375.818 142.317l-52.591 66.197-33.298-26.469 52.591-66.197z"/><path d="M339.004 130.202l-35.89 45.175a6.607 6.607 0 0 1 1.061 9.281l13.289 10.564a6.603 6.603 0 0 1 9.28-1.062l35.89-45.175a6.607 6.607 0 0 1-1.062-9.281l-13.29-10.564a6.602 6.602 0 0 1-9.278 1.062" fill="#9BEBA1"/><path d="M339.004 130.202l-35.89 45.175a6.607 6.607 0 0 1 1.061 9.281l13.289 10.564a6.603 6.603 0 0 1 9.28-1.062l35.89-45.175a6.607 6.607 0 0 1-1.062-9.281l-13.29-10.564a6.602 6.602 0 0 1-9.278 1.062z" stroke="#1F70A8" stroke-width="2"/><path d="M343.164 149.229c7.151 5.684 8.34 16.091 2.658 23.245-5.683 7.153-16.087 8.343-23.238 2.659-7.152-5.684-8.342-16.092-2.659-23.245 5.683-7.153 16.087-8.343 23.239-2.66" fill="#ADF2B0"/><path d="M343.164 149.229c7.151 5.684 8.34 16.091 2.658 23.245-5.683 7.153-16.087 8.343-23.238 2.659-7.152-5.684-8.342-16.092-2.659-23.245 5.683-7.153 16.087-8.343 23.239-2.66z" stroke="#1F70A8" stroke-width="2"/><path d="M341.691 170.466l-2.322-1.846c-1.082 1.315-2.593 2.366-3.807 2.714l-1.102-1.777c1.21-.389 2.596-1.238 3.62-2.527 1.296-1.63 1.231-3.486-.08-4.527-1.263-1.005-2.758-.73-4.8.424-2.783 1.614-4.992 2.223-6.993.633-1.908-1.518-2.28-4.025-.944-6.415l-2.32-1.846 1.133-1.427 2.23 1.772c1.142-1.343 2.258-1.993 3.18-2.349l1.06 1.782a7.087 7.087 0 0 0-3.084 2.275c-1.407 1.772-.879 3.28.04 4.01 1.196.951 2.47.576 4.887-.769 2.85-1.6 4.994-1.845 7.04-.218 1.817 1.444 2.513 4.06 1.023 6.74l2.391 1.901-1.152 1.45z" fill="#1F70A8"/><path fill="#90DD93" d="M357.633 125.462L321.9 202.09l-38.545-17.985 35.735-76.627z"/><path stroke="#1F70A8" stroke-width="2" d="M357.633 125.462L321.9 202.09l-38.545-17.985 35.735-76.627z"/><path d="M319.01 122.256l-24.386 52.293a6.607 6.607 0 0 1 3.193 8.779l15.383 7.177a6.604 6.604 0 0 1 8.777-3.194l24.386-52.292a6.607 6.607 0 0 1-3.193-8.78l-15.383-7.177a6.604 6.604 0 0 1-8.777 3.194" fill="#9BEBA1"/><path d="M319.01 122.256l-24.386 52.293a6.607 6.607 0 0 1 3.193 8.779l15.383 7.177a6.604 6.604 0 0 1 8.777-3.194l24.386-52.292a6.607 6.607 0 0 1-3.193-8.78l-15.383-7.177a6.604 6.604 0 0 1-8.777 3.194z" stroke="#1F70A8" stroke-width="2"/><path d="M327.485 139.79c8.279 3.863 11.859 13.707 7.998 21.988-3.862 8.28-13.703 11.861-21.981 7.998-8.279-3.862-11.859-13.706-7.998-21.986 3.863-8.28 13.703-11.862 21.981-8" fill="#ADF2B0"/><path d="M327.485 139.79c8.279 3.863 11.859 13.707 7.998 21.988-3.862 8.28-13.703 11.861-21.981 7.998-8.279-3.862-11.859-13.706-7.998-21.986 3.863-8.28 13.703-11.862 21.981-8z" stroke="#1F70A8" stroke-width="2"/><path d="M330.997 160.787l-2.687-1.254c-.747 1.53-1.97 2.905-3.071 3.527l-1.486-1.472c1.086-.66 2.237-1.81 2.933-3.301.881-1.888.386-3.677-1.131-4.384-1.464-.684-2.853-.067-4.57 1.53-2.33 2.218-4.338 3.325-6.653 2.244-2.21-1.03-3.154-3.382-2.412-6.019l-2.687-1.254.77-1.651 2.581 1.204c.799-1.573 1.732-2.465 2.546-3.025l1.446 1.485a7.095 7.095 0 0 0-2.47 2.931c-.955 2.05-.09 3.394.973 3.89 1.384.647 2.536-.015 4.575-1.885 2.396-2.22 4.426-2.958 6.794-1.853 2.103.982 3.39 3.364 2.564 6.317l2.767 1.292-.782 1.678z" fill="#1F70A8"/><path d="M427.289 247.94H11.597M449.255 247.94H432.07M460.265 247.94h-5.908M6.908 247.94H1" stroke="#1F70A8" stroke-width="2" stroke-linecap="round"/></g></svg>