<?xml version="1.0" encoding="UTF-8" standalone="no"?>
<svg width="462px" height="249px" viewBox="0 0 462 249" version="1.1" xmlns="http://www.w3.org/2000/svg" xmlns:xlink="http://www.w3.org/1999/xlink">
    <!-- Generator: Sketch 3.7.2 (28276) - http://www.bohemiancoding.com/sketch -->
    <title>Group 6</title>
    <desc>Created with Sketch.</desc>
    <defs></defs>
    <g id="Page-1" stroke="none" stroke-width="1" fill="none" fill-rule="evenodd">
        <g id="explanation-aws@2x" transform="translate(-487.000000, -448.000000)">
            <g id="Group-6" transform="translate(488.000000, 448.000000)">
                <g id="Page-1">
                    <path d="M448.106543,98.6720117 C448.106543,110.72474 438.338592,120.495371 426.28917,120.495371 C414.239748,120.495371 404.470991,110.72474 404.470991,98.6720117 C404.470991,86.6192835 414.239748,76.8486524 426.28917,76.8486524 C438.338592,76.8486524 448.106543,86.6192835 448.106543,98.6720117" id="Fill-1" fill="#1F70A8"></path>
                    <path d="M43.2926865,204.275974 C43.2926865,213.010314 36.2138424,220.0911 27.4818984,220.0911 C18.7499545,220.0911 11.6719159,213.010314 11.6719159,204.275974 C11.6719159,195.541634 18.7499545,188.460848 27.4818984,188.460848 C36.2138424,188.460848 43.2926865,195.541634 43.2926865,204.275974" id="Fill-3" fill="#1F70A8"></path>
                    <path d="M116.701436,15.0579728 C116.701436,21.5843515 111.411839,26.8754 104.88725,26.8754 C98.362662,26.8754 93.0730648,21.5843515 93.0730648,15.0579728 C93.0730648,8.53159417 98.362662,3.24054563 104.88725,3.24054563 C111.411839,3.24054563 116.701436,8.53159417 116.701436,15.0579728" id="Fill-5" fill="#2C92D7"></path>
                    <path d="M372.064193,247.94034 C388.448571,222.779252 397.977257,192.742117 397.977257,160.475262 C397.977257,71.8473786 326.149587,0 237.545208,0 C148.94083,0 77.1131594,71.8473786 77.1131594,160.475262 C77.1131594,192.742117 86.6418459,222.779252 103.026224,247.94034 L372.064193,247.94034 Z" id="Fill-7" fill="#9FDAFC"></path>
                    <path d="M338.430781,121.203047 C335.902795,95.0507942 313.874354,74.6045903 287.065457,74.6045903 C280.548119,74.6045903 274.319187,75.8246097 268.577646,78.0301534 C259.301919,58.2076583 239.185177,44.4739786 215.858102,44.4739786 C183.724967,44.4739786 157.67656,70.5303379 157.67656,102.672289 C157.67656,108.693416 158.590921,114.501804 160.288329,119.965299 C159.423916,119.910503 158.554669,119.873435 157.67656,119.873435 C135.040694,119.873435 116.690641,138.228522 116.690641,160.869794 C116.690641,183.511872 135.040694,201.866959 157.67656,201.866959 L328.051377,201.866959 C350.686438,201.866959 369.03649,183.511872 369.03649,160.869794 C369.03649,141.816056 356.039678,125.801085 338.430781,121.203047" id="Fill-9" fill="#F4F4F4"></path>
                    <path d="M338.430781,121.203047 C335.902795,95.0507942 313.874354,74.6045903 287.065457,74.6045903 C280.548119,74.6045903 274.319187,75.8246097 268.577646,78.0301534 C259.301919,58.2076583 239.185177,44.4739786 215.858102,44.4739786 C183.724967,44.4739786 157.67656,70.5303379 157.67656,102.672289 C157.67656,108.693416 158.590921,114.501804 160.288329,119.965299 C159.423916,119.910503 158.554669,119.873435 157.67656,119.873435 C135.040694,119.873435 116.690641,138.228522 116.690641,160.869794 C116.690641,183.511872 135.040694,201.866959 157.67656,201.866959 L328.051377,201.866959 C350.686438,201.866959 369.03649,183.511872 369.03649,160.869794 C369.03649,141.816056 356.039678,125.801085 338.430781,121.203047 L338.430781,121.203047 Z" id="Stroke-11" stroke="#1F70A8" stroke-width="2"></path>
                    <path d="M262.228196,83.2488388 C264.338879,82.0239845 266.950648,79.5710524 269.236953,78.6499942 C260.024063,58.6671398 238.561156,44.4056447 215.117268,44.4056447 C191.372084,44.4056447 170.952434,58.6357126 161.907916,79.0343728 C172.255096,62.9210913 190.329632,52.2463243 210.896708,52.2463243 C232.490928,52.2463243 252.188757,65.7761301 262.228196,83.2488388" id="Fill-13" fill="#FCFCFC"></path>
                    <path d="M286.915534,74.2385845 C280.233047,74.2385845 273.853468,75.5174291 267.995114,77.832565 C268.134483,78.1218563 268.279492,78.4087301 268.414028,78.7004388 C266.162364,79.6077981 264.312697,82.0325262 262.227793,83.2485165 C267.62937,81.3266233 273.016445,79.3644388 279.077811,79.3644388 C303.645517,79.3644388 324.092557,100.103963 329.303205,123.102216 C332.358056,123.202138 335.427408,121.012711 338.277636,121.746012 C335.730315,95.6139049 313.70993,74.2385845 286.915534,74.2385845" id="Fill-15" fill="#FCFCFC"></path>
                    <path d="M338.040385,121.03745 C338.06697,121.274362 338.103222,121.508857 338.126585,121.746576 C335.527706,121.076935 332.089387,123.060877 329.303608,123.101974 C345.844273,128.3761 358.485009,142.507857 358.485009,160.801702 C358.485009,181.654042 342.917513,198.857605 322.775797,201.449139 C324.503818,201.671547 326.262452,201.798867 328.050893,201.798867 C350.68676,201.798867 369.036813,183.44378 369.036813,160.801702 C369.036813,141.60775 355.846655,125.499304 338.040385,121.03745" id="Fill-17" fill="#FCFCFC"></path>
                    <path d="M161.76613,197.458773 C143.564308,194.991336 131.774291,178.813588 131.774291,159.608355 C131.774291,141.282278 143.797933,125.769336 160.382907,120.519384 C159.490298,120.461365 158.59366,120.421074 157.68655,120.421074 C135.051489,120.421074 116.701436,138.776161 116.701436,161.418239 C116.701436,184.059511 135.051489,202.414598 157.68655,202.414598 C159.411349,202.414598 161.109562,202.302588 162.777163,202.094685 L162.777163,202.414598 L265.544063,202.414598 L322.775797,201.449219 C322.775797,201.449219 201.666095,202.866666 161.76613,197.458773" id="Fill-19" fill="#E5E3E3"></path>
                    <path d="M338.441415,121.134874 C335.913429,94.9826214 313.884988,74.5364175 287.076091,74.5364175 C280.558753,74.5364175 274.329821,75.7564369 268.58828,77.9619806 C259.312553,58.1394854 239.195811,44.4058058 215.868736,44.4058058 C183.735601,44.4058058 157.687194,70.462165 157.687194,102.604117 C157.687194,108.625243 158.601555,114.433631 160.298963,119.897126 C159.43455,119.84233 158.565303,119.805262 157.687194,119.805262 C135.051327,119.805262 116.701275,138.16035 116.701275,160.801621 C116.701275,183.443699 135.051327,201.798786 157.687194,201.798786 L328.062011,201.798786 C350.697072,201.798786 369.047124,183.443699 369.047124,160.801621 C369.047124,141.747883 356.050312,125.732913 338.441415,121.134874 L338.441415,121.134874 Z" id="Stroke-21" stroke="#1F70A8" stroke-width="2"></path>
                    <polygon id="Fill-23" fill="#90DD93" points="390.349313 172.011376 317.875548 215.533191 295.98406 179.058317 368.457019 135.536502"></polygon>
                    <polygon id="Stroke-25" stroke="#1F70A8" stroke-width="2" points="390.349313 172.011376 317.875548 215.533191 295.98406 179.058317 368.457019 135.536502"></polygon>
                    <path d="M360.127877,147.742498 L310.670224,177.442799 C312.547282,180.571013 311.534637,184.629149 308.407282,186.506721 L317.14406,201.063149 C320.271415,199.185576 324.328438,200.198498 326.205496,203.326712 L375.663149,173.626411 C373.786091,170.498197 374.798736,166.440061 377.926091,164.562488 L369.189313,150.006061 C366.061958,151.883634 362.004935,150.870712 360.127877,147.742498" id="Fill-27" fill="#9BEBA1"></path>
                    <path d="M360.127877,147.742498 L310.670224,177.442799 C312.547282,180.571013 311.534637,184.629149 308.407282,186.506721 L317.14406,201.063149 C320.271415,199.185576 324.328438,200.198498 326.205496,203.326712 L375.663149,173.626411 C373.786091,170.498197 374.798736,166.440061 377.926091,164.562488 L369.189313,150.006061 C366.061958,151.883634 362.004935,150.870712 360.127877,147.742498 L360.127877,147.742498 Z" id="Stroke-29" stroke="#1F70A8" stroke-width="2"></path>
                    <path d="M357.346851,167.019288 C362.048357,174.852716 359.51151,185.015783 351.679426,189.71858 C343.848147,194.421376 333.687867,191.883832 328.986361,184.050405 C324.284855,176.216172 326.822508,166.05391 334.653786,161.350308 C342.485065,156.647512 352.645345,159.185861 357.346851,167.019288" id="Fill-31" fill="#ADF2B0"></path>
                    <path d="M357.346851,167.019288 C362.048357,174.852716 359.51151,185.015783 351.679426,189.71858 C343.848147,194.421376 333.687867,191.883832 328.986361,184.050405 C324.284855,176.216172 326.822508,166.05391 334.653786,161.350308 C342.485065,156.647512 352.645345,159.185861 357.346851,167.019288 L357.346851,167.019288 Z" id="Stroke-33" stroke="#1F70A8" stroke-width="2"></path>
                    <path d="M348.51614,186.387943 L346.98952,183.844758 C345.514459,184.69571 343.731657,185.150195 342.471692,185.049467 L342.06325,182.998642 C343.332883,183.059884 344.930396,182.750448 346.341009,181.903525 C348.126228,180.830972 348.716736,179.071855 347.854739,177.636681 C347.023356,176.250661 345.527349,175.984739 343.209625,176.348166 C340.038767,176.882428 337.755685,176.676943 336.440939,174.485098 C335.185807,172.394787 335.718312,169.916875 337.808049,168.146477 L336.281429,165.604098 L337.844301,164.665312 L339.309695,167.107768 C340.851622,166.251176 342.124476,166.034409 343.111342,166.024739 L343.479503,168.065088 C342.76896,168.080399 341.405877,168.145671 339.793863,169.113467 C337.854774,170.27869 337.820133,171.875836 338.424336,172.882312 C339.210606,174.191778 340.534214,174.288477 343.270046,173.878312 C346.498907,173.379506 348.593478,173.903292 349.938837,176.145098 C351.133548,178.135486 350.867699,180.82936 348.531447,182.815719 L350.10318,185.434651 L348.51614,186.387943 Z" id="Fill-35" fill="#1F70A8"></path>
                    <polygon id="Fill-37" fill="#90DD93" points="374.818392 142.317038 322.226939 208.51397 288.9289 182.045028 341.520354 115.848096"></polygon>
                    <polygon id="Stroke-39" stroke="#1F70A8" stroke-width="2" points="374.818392 142.317038 322.226939 208.51397 288.9289 182.045028 341.520354 115.848096"></polygon>
                    <path d="M338.003972,130.202181 L302.114305,175.376744 C304.969366,177.646753 305.444673,181.802394 303.175285,184.658239 L316.463727,195.221802 C318.733114,192.365151 322.887615,191.889715 325.743482,194.159724 L361.633149,148.985161 C358.778088,146.715151 358.302781,142.560317 360.572168,139.703666 L347.282921,129.140103 C345.01434,131.996753 340.859839,132.47219 338.003972,130.202181" id="Fill-41" fill="#9BEBA1"></path>
                    <path d="M338.003972,130.202181 L302.114305,175.376744 C304.969366,177.646753 305.444673,181.802394 303.175285,184.658239 L316.463727,195.221802 C318.733114,192.365151 322.887615,191.889715 325.743482,194.159724 L361.633149,148.985161 C358.778088,146.715151 358.302781,142.560317 360.572168,139.703666 L347.282921,129.140103 C345.01434,131.996753 340.859839,132.47219 338.003972,130.202181 L338.003972,130.202181 Z" id="Stroke-43" stroke="#1F70A8" stroke-width="2"></path>
                    <path d="M342.163709,149.228923 C349.315058,154.913215 350.504935,165.320448 344.822203,172.473758 C339.138665,179.627069 328.735093,180.817273 321.583744,175.132982 C314.432396,169.44869 313.241713,159.041457 318.92525,151.888147 C324.607982,144.734836 335.012361,143.544632 342.163709,149.228923" id="Fill-45" fill="#ADF2B0"></path>
                    <path d="M342.163709,149.228923 C349.315058,154.913215 350.504935,165.320448 344.822203,172.473758 C339.138665,179.627069 328.735093,180.817273 321.583744,175.132982 C314.432396,169.44869 313.241713,159.041457 318.92525,151.888147 C324.607982,144.734836 335.012361,143.544632 342.163709,149.228923 L342.163709,149.228923 Z" id="Stroke-47" stroke="#1F70A8" stroke-width="2"></path>
                    <path d="M340.690984,170.465642 L338.369233,168.620302 C337.286501,169.934603 335.775993,170.986205 334.561947,171.334321 L333.459881,169.557477 C334.669898,169.168263 336.056343,168.318923 337.080266,167.030409 C338.376483,165.399418 338.311229,163.544409 337.000511,162.503283 C335.736518,161.497613 334.242123,161.773205 332.19911,162.927147 C329.417359,164.541215 327.207587,165.149613 325.207271,163.559719 C323.298795,162.04235 322.927412,159.535428 324.263103,157.144545 L321.942158,155.299205 L323.075643,153.872088 L325.305555,155.644098 C326.447902,154.300787 327.564469,153.651292 328.485275,153.295117 L329.546256,155.076797 C328.88566,155.340302 327.63214,155.880205 326.462403,157.352448 C325.055012,159.124457 325.583489,160.63135 326.502683,161.362234 C327.6982,162.313108 328.97186,161.937593 331.389478,160.593477 C334.238095,158.993108 336.382613,158.748137 338.428848,160.375098 C340.246291,161.819137 340.942333,164.435651 339.451965,167.115826 L341.842998,169.015962 L340.690984,170.465642 Z" id="Fill-49" fill="#1F70A8"></path>
                    <polygon id="Fill-51" fill="#90DD93" points="356.633086 125.462478 320.8989 202.090012 282.353961 184.104798 318.088953 107.47807"></polygon>
                    <polygon id="Stroke-53" stroke="#1F70A8" stroke-width="2" points="356.633086 125.462478 320.8989 202.090012 282.353961 184.104798 318.088953 107.47807"></polygon>
                    <path d="M318.010406,122.256099 L293.623961,174.548517 C296.929356,176.090866 298.359303,180.021682 296.817377,183.327983 L312.199583,190.505468 C313.74151,187.199167 317.671247,185.768827 320.976641,187.311177 L345.363086,135.018759 C342.057692,133.47641 340.627744,129.545594 342.169671,126.239293 L326.787464,119.061808 C325.245538,122.368109 321.3158,123.798449 318.010406,122.256099" id="Fill-55" fill="#9BEBA1"></path>
                    <path d="M318.010406,122.256099 L293.623961,174.548517 C296.929356,176.090866 298.359303,180.021682 296.817377,183.327983 L312.199583,190.505468 C313.74151,187.199167 317.671247,185.768827 320.976641,187.311177 L345.363086,135.018759 C342.057692,133.47641 340.627744,129.545594 342.169671,126.239293 L326.787464,119.061808 C325.245538,122.368109 321.3158,123.798449 318.010406,122.256099 L318.010406,122.256099 Z" id="Stroke-57" stroke="#1F70A8" stroke-width="2"></path>
                    <path d="M326.485363,139.790776 C334.763751,143.653096 338.343856,153.497057 334.482595,161.777717 C330.620529,170.057572 320.780074,173.639465 312.501685,169.776339 C304.223296,165.914018 300.643191,156.070057 304.504452,147.790203 C308.366518,139.509543 318.206974,135.928455 326.485363,139.790776" id="Fill-59" fill="#ADF2B0"></path>
                    <path d="M326.485363,139.790776 C334.763751,143.653096 338.343856,153.497057 334.482595,161.777717 C330.620529,170.057572 320.780074,173.639465 312.501685,169.776339 C304.223296,165.914018 300.643191,156.070057 304.504452,147.790203 C308.366518,139.509543 318.206974,135.928455 326.485363,139.790776 L326.485363,139.790776 Z" id="Stroke-61" stroke="#1F70A8" stroke-width="2"></path>
                    <path d="M329.997233,160.786714 L327.309737,159.53285 C326.562942,161.063917 325.339229,162.43785 324.238774,163.059947 L322.75324,161.587704 C323.839194,160.927733 324.990403,159.778626 325.686445,158.287044 C326.56697,156.398995 326.071524,154.610063 324.554571,153.902549 C323.090788,153.219209 321.701926,153.835665 319.984378,155.433617 C317.654571,157.651248 315.647005,158.757646 313.331699,157.677034 C311.121926,156.646383 310.177758,154.294985 310.91972,151.658325 L308.23303,150.404461 L309.003187,148.752519 L311.584343,149.957228 C312.382697,148.384257 313.316392,147.492209 314.130053,146.93216 L315.576112,148.417296 C314.995271,148.827461 313.902067,149.644568 313.106935,151.348083 C312.150683,153.398908 313.015096,154.742218 314.079299,155.238607 C315.463327,155.884879 316.614536,155.223296 318.65352,153.352976 C321.050193,151.132121 323.07951,150.394791 325.447986,151.500383 C327.551419,152.481879 328.837968,154.863898 328.012224,157.817248 L330.779475,159.108985 L329.997233,160.786714 Z" id="Fill-63" fill="#1F70A8"></path>
                    <path d="M426.288928,247.94034 L10.5971594,247.94034" id="Stroke-65" stroke="#1F70A8" stroke-width="2" stroke-linecap="round"></path>
                    <path d="M448.255096,247.94034 L431.069142,247.94034" id="Stroke-67" stroke="#1F70A8" stroke-width="2" stroke-linecap="round"></path>
                    <path d="M459.264967,247.94034 L453.357471,247.94034" id="Stroke-69" stroke="#1F70A8" stroke-width="2" stroke-linecap="round"></path>
                    <path d="M5.9077373,247.94034 L0.000241681261,247.94034" id="Stroke-71" stroke="#1F70A8" stroke-width="2" stroke-linecap="round"></path>
                </g>
            </g>
        </g>
    </g>
</svg>